<?xml version="1.0" encoding="UTF-8" standalone="no"?>
<!-- Created with Inkscape (http://www.inkscape.org/) -->

<svg
   version="1.1"
   id="svg1"
   width="2160"
   height="2160"
   viewBox="0 0 2160 2160"
   sodipodi:docname="lockpad.svg"
   inkscape:version="1.3.2 (091e20e, 2023-11-25)"
   inkscape:export-filename="lockpad.png"
   inkscape:export-xdpi="96"
   inkscape:export-ydpi="96"
   xmlns:inkscape="http://www.inkscape.org/namespaces/inkscape"
   xmlns:sodipodi="http://sodipodi.sourceforge.net/DTD/sodipodi-0.dtd"
   xmlns="http://www.w3.org/2000/svg"
   xmlns:svg="http://www.w3.org/2000/svg">
  <defs
     id="defs1" />
  <sodipodi:namedview
     id="namedview1"
     pagecolor="#000000"
     bordercolor="#000000"
     borderopacity="0.25"
     inkscape:showpageshadow="2"
     inkscape:pageopacity="0.0"
     inkscape:pagecheckerboard="0"
     inkscape:deskcolor="#d1d1d1"
     showguides="true"
     inkscape:zoom="0.5961303"
     inkscape:cx="654.21938"
     inkscape:cy="1170.0462"
     inkscape:window-width="3840"
     inkscape:window-height="2019"
     inkscape:window-x="0"
     inkscape:window-y="32"
     inkscape:window-maximized="1"
     inkscape:current-layer="layer1">
    <sodipodi:guide
       position="645,2160"
       orientation="-1,0"
       id="guide18"
       inkscape:locked="false"
       inkscape:label=""
       inkscape:color="rgb(0,134,229)" />
    <sodipodi:guide
       position="1515,2160"
       orientation="-1,0"
       id="guide19"
       inkscape:locked="false"
       inkscape:label=""
       inkscape:color="rgb(0,134,229)" />
    <sodipodi:guide
       position="690,2160"
       orientation="-1,0"
       id="guide20"
       inkscape:locked="false"
       inkscape:label=""
       inkscape:color="rgb(0,134,229)" />
    <sodipodi:guide
       position="1470,2160"
       orientation="-1,0"
       id="guide21"
       inkscape:locked="false"
       inkscape:label=""
       inkscape:color="rgb(0,134,229)" />
    <sodipodi:guide
       position="0,740"
       orientation="0,1"
       id="guide22"
       inkscape:locked="false"
       inkscape:label=""
       inkscape:color="rgb(0,134,229)" />
    <sodipodi:guide
       position="1073.5908,785"
       orientation="0,1"
       id="guide23"
       inkscape:locked="false"
       inkscape:label=""
       inkscape:color="rgb(0,134,229)" />
    <sodipodi:guide
       position="0,1362"
       orientation="0,1"
       id="guide24"
       inkscape:locked="false"
       inkscape:label=""
       inkscape:color="rgb(0,134,229)" />
    <sodipodi:guide
       position="0,1407"
       orientation="0,1"
       id="guide25"
       inkscape:locked="false"
       inkscape:label=""
       inkscape:color="rgb(0,134,229)" />
    <sodipodi:guide
       position="807,2151"
       orientation="-1,0"
       id="guide26"
       inkscape:locked="false"
       inkscape:label=""
       inkscape:color="rgb(0,134,229)" />
    <sodipodi:guide
       position="1353,2160"
       orientation="-1,0"
       id="guide27"
       inkscape:locked="false"
       inkscape:label=""
       inkscape:color="rgb(0,134,229)" />
    <sodipodi:guide
       position="0,1555"
       orientation="0,1"
       id="guide28"
       inkscape:locked="false"
       inkscape:label=""
       inkscape:color="rgb(0,134,229)" />
    <sodipodi:guide
       position="1080,1768"
       orientation="0,1"
       id="guide29"
       inkscape:locked="false"
       inkscape:label=""
       inkscape:color="rgb(0,134,229)" />
    <sodipodi:guide
       position="1080,1629.5443"
       orientation="0,1"
       id="guide30"
       inkscape:locked="false"
       inkscape:label=""
       inkscape:color="rgb(0,134,229)" />
  </sodipodi:namedview>
  <g
     inkscape:groupmode="layer"
     id="layer1"
     inkscape:label="Drawing"
     style="display:inline">
    <path
       id="path16"
       style="fill:#ffffff;fill-opacity:0.5;stroke-width:2;stroke-linejoin:round;-inkscape-stroke:none"
       d="M 1080 0 A 972 972.5 0 0 0 108 972.5 A 972 972.5 0 0 0 541 1780.5098 L 541 2108 C 902.94029 1887.9667 1262.2102 1893.3809 1619 2108 L 1619 1780.5098 A 972 972.5 0 0 0 2052 972.5 A 972 972.5 0 0 0 1080 0 z " />
    <path
       id="path17"
       style="fill:#f45d60;fill-opacity:1;stroke-width:2;stroke-linejoin:round;-inkscape-stroke:none"
       d="M 1080 99 A 873 873 0 0 0 207 972 A 873 873 0 0 0 1080 1845 A 873 873 0 0 0 1953 972 A 873 873 0 0 0 1080 99 z M 1080 271 A 701 701.5 0 0 1 1781 972.5 A 701 701.5 0 0 1 1080 1674 A 701 701.5 0 0 1 379 972.5 A 701 701.5 0 0 1 1080 271 z " />
    <path
       style="fill:#f45d60;fill-opacity:1;stroke-width:2;stroke-linejoin:round;-inkscape-stroke:none"
       d="M 1470,1420 H 690 c -21.38275,-0.1124 -44.93278,-20.1177 -45,-45 V 798 c 0.12431,-22.31761 25.58439,-44.49103 45,-45 h 780 c 24.2035,-0.18144 44.6277,21.95023 45,45 v 577 c 0.079,22.7122 -21.832,44.7644 -45,45"
       id="path25"
       sodipodi:nodetypes="ccccccccc" />
    <path
       style="fill:none;fill-opacity:1;stroke:#f45d60;stroke-width:90;stroke-linecap:round;stroke-linejoin:round;stroke-dasharray:none;stroke-opacity:1;paint-order:normal"
       d="M 807,753 V 605 c 0,-74.5443 0,-213 273,-213 273,0 273,138.4557 273,213 v 148"
       id="path30"
       sodipodi:nodetypes="ccscc" />
    <text
       xml:space="preserve"
       style="font-size:600px;fill:#742b30;stroke:#742b30;stroke-width:35;stroke-linecap:round;stroke-linejoin:round;stroke-dasharray:none;paint-order:fill markers stroke;stroke-opacity:1;fill-opacity:1"
       x="821.01575"
       y="1305.2006"
       id="text1"><tspan
         sodipodi:role="line"
         id="tspan1"
         x="821.01575"
         y="1305.2006"
         style="font-size:600px;fill:#742b30;fill-opacity:1;stroke:#742b30;stroke-width:35;stroke-linejoin:round;stroke-dasharray:none;stroke-opacity:1;paint-order:fill markers stroke">M</tspan></text>
  </g>
</svg>
