<?xml version="1.0" encoding="UTF-8"?>
<svg width="128pt" height="128pt" version="1.1" viewBox="0 0 128 128" xmlns="http://www.w3.org/2000/svg">
 <defs>
  <clipPath id="a">
   <path d="m23.695 27h80.609v74h-80.609z"/>
  </clipPath>
 </defs>
 <rect width="128" height="128" fill="#fff"/>
 <g clip-path="url(#a)">
  <path d="m49.664 66.059-12.406 12.406c-8.3164-5.5039-13.562-11.473-13.562-11.473s18.047-26.527 40.305-26.527c3.3281 0 6.5625 0.59375 9.6602 1.6016l-7.6016 7.6016c-4.5352-0.64844-9.3047 0.85938-12.66 4.4648-3.1055 3.332-4.332 7.7422-3.7344 11.926zm39.602-15.109-10.938 10.941c0.61719 4.1992-0.60938 8.6328-3.7266 11.98-3.3711 3.6211-8.1641 5.125-12.715 4.457l-7.8789 7.8828c3.1953 0.83203 6.543 1.3281 9.9922 1.3281 22.258 0 40.305-20.547 40.305-20.547s-5.8672-8.625-15.039-16.043zm-61.332 41.293 7.793 7.793 64.277-64.277-7.793-7.793z"/>
 </g>
</svg>
