<?xml version="1.0" encoding="UTF-8" standalone="no"?>
<!-- Created with Inkscape (http://www.inkscape.org/) -->

<svg
   width="64"
   height="64"
   viewBox="0 0 16.933334 16.933334"
   version="1.1"
   id="svg8"
   inkscape:version="1.2.2 (b0a8486541, 2022-12-01)"
   sodipodi:docname="workcell.svg"
   inkscape:export-filename="workcell.png"
   inkscape:export-xdpi="96"
   inkscape:export-ydpi="96"
   xmlns:inkscape="http://www.inkscape.org/namespaces/inkscape"
   xmlns:sodipodi="http://sodipodi.sourceforge.net/DTD/sodipodi-0.dtd"
   xmlns="http://www.w3.org/2000/svg"
   xmlns:svg="http://www.w3.org/2000/svg"
   xmlns:rdf="http://www.w3.org/1999/02/22-rdf-syntax-ns#"
   xmlns:cc="http://creativecommons.org/ns#"
   xmlns:dc="http://purl.org/dc/elements/1.1/">
  <defs
     id="defs2" />
  <sodipodi:namedview
     id="base"
     pagecolor="#ffffff"
     bordercolor="#666666"
     borderopacity="1.0"
     inkscape:pageopacity="0.0"
     inkscape:pageshadow="2"
     inkscape:zoom="7.919596"
     inkscape:cx="7.8918167"
     inkscape:cy="32.703688"
     inkscape:document-units="mm"
     inkscape:current-layer="layer1"
     showgrid="false"
     units="px"
     inkscape:window-width="1920"
     inkscape:window-height="1089"
     inkscape:window-x="0"
     inkscape:window-y="27"
     inkscape:window-maximized="1"
     inkscape:showpageshadow="2"
     inkscape:pagecheckerboard="0"
     inkscape:deskcolor="#d1d1d1" />
  <metadata
     id="metadata5">
    <rdf:RDF>
      <cc:Work
         rdf:about="">
        <dc:format>image/svg+xml</dc:format>
        <dc:type
           rdf:resource="http://purl.org/dc/dcmitype/StillImage" />
      </cc:Work>
    </rdf:RDF>
  </metadata>
  <g
     inkscape:groupmode="layer"
     id="layer2"
     inkscape:label="Layer 2">
    <rect
       style="fill:#ffffff;stroke:#000000;stroke-width:0.264028"
       id="rect280"
       width="16.735971"
       height="16.735973"
       x="0.1320139"
       y="280.19864"
       transform="translate(0,-280.06664)" />
  </g>
  <g
     inkscape:label="Layer 1"
     inkscape:groupmode="layer"
     id="layer1"
     transform="translate(0, -280.067)">
    <g
       inkscape:label="Rendered Gears"
       transform="translate(8.4380399,288.72)"
       id="g2992"
       style="stroke-width:1;stroke-dasharray:none">
      <path
         style="fill:none;stroke:#000000;stroke-width:1;stroke-dasharray:none"
         d="M 4.33501,-0.87038 5.6922,-1.14287 5.78209,-1.15013 7.34568,-0.58832 V 0.58832 L 5.78209,1.15013 5.6922,1.14287 4.33501,0.87038 3.68076,2.44987 4.83313,3.21686 4.90182,3.27529 5.61019,4.77818 4.77818,5.61019 3.27529,4.90182 3.21686,4.83313 2.44987,3.68076 0.87038,4.33501 1.14287,5.6922 1.15013,5.78209 0.58832,7.34568 H -0.58832 L -1.15013,5.78209 -1.14287,5.6922 -0.87038,4.33501 -2.44987,3.68076 -3.21686,4.83313 -3.27529,4.90182 -4.77818,5.61019 -5.61019,4.77818 -4.90182,3.27529 -4.83313,3.21686 -3.68076,2.44987 -4.33501,0.87038 -5.6922,1.14287 -5.78209,1.15013 -7.34568,0.58832 v -1.17664 l 1.56359,-0.56181 0.08989,0.00726 1.35719,0.27249 0.65425,-1.57949 -1.15237,-0.76699 -0.06869,-0.05843 -0.70837,-1.50289 0.83201,-0.83201 1.50289,0.70837 0.05843,0.06869 0.76699,1.15237 1.57949,-0.65425 -0.27249,-1.35719 -0.00726,-0.08989 0.56181,-1.56359 h 1.17664 l 0.56181,1.56359 -0.00726,0.08989 -0.27249,1.35719 1.57949,0.65425 0.76699,-1.15237 0.05843,-0.06869 1.50289,-0.70837 0.83201,0.83201 -0.70837,1.50289 -0.06869,0.05843 -1.15237,0.76699 z"
         id="path2988" />
      <circle
         style="fill:none;stroke:#000000;stroke-width:1;stroke-dasharray:none"
         id="path2990"
         cx="0"
         cy="0"
         r="3.6718312e-18" />
    </g>
  </g>
</svg>
